<?xml version="1.0" encoding="UTF-8"?>
<svg width="700pt" height="700pt" version="1.1" viewBox="0 0 700 700" xmlns="http://www.w3.org/2000/svg" xmlns:xlink="http://www.w3.org/1999/xlink">
 <defs>
  <symbol id="f" overflow="visible">
   <path d="m39.906-2.3906c-2.0547 1.0742-4.1953 1.8828-6.4219 2.4219-2.2305 0.53906-4.5586 0.8125-6.9844 0.8125-7.2305 0-12.961-2.0195-17.188-6.0625-4.2305-4.0391-6.3438-9.5234-6.3438-16.453 0-6.9453 2.1133-12.441 6.3438-16.484 4.2266-4.0391 9.957-6.0625 17.188-6.0625 2.4258 0 4.7539 0.27344 6.9844 0.8125 2.2266 0.54297 4.3672 1.3516 6.4219 2.4219v8.9844c-2.0742-1.4141-4.1211-2.4531-6.1406-3.1094-2.0117-0.66406-4.1328-1-6.3594-1-4 0-7.1484 1.2812-9.4375 3.8438-2.2812 2.5625-3.4219 6.0938-3.4219 10.594 0 4.4805 1.1406 8 3.4219 10.562 2.2891 2.5625 5.4375 3.8438 9.4375 3.8438 2.2266 0 4.3477-0.32812 6.3594-0.98438 2.0195-0.66406 4.0664-1.707 6.1406-3.125z"/>
  </symbol>
  <symbol id="e" overflow="visible">
   <path d="m16.375-41.828v9.25h10.734v7.4375h-10.734v13.828c0 1.5117 0.30078 2.5312 0.90625 3.0625 0.60156 0.53125 1.7969 0.79688 3.5781 0.79688h5.3438v7.4531h-8.9219c-4.1172 0-7.0312-0.85938-8.75-2.5781-1.7109-1.7188-2.5625-4.6289-2.5625-8.7344v-13.828h-5.1875v-7.4375h5.1875v-9.25z"/>
  </symbol>
  <symbol id="d" overflow="visible">
   <path d="m27.172-27.812v-17.453h10.469v45.266h-10.469v-4.7188c-1.4375 1.9297-3.0234 3.3398-4.75 4.2344-1.7188 0.88281-3.7148 1.3281-5.9844 1.3281-4.0117 0-7.3086-1.5938-9.8906-4.7812-2.5859-3.1953-3.875-7.3047-3.875-12.328 0-5.0195 1.2891-9.125 3.875-12.312 2.582-3.1953 5.8789-4.7969 9.8906-4.7969 2.25 0 4.2383 0.45312 5.9688 1.3594 1.7383 0.90625 3.3281 2.3086 4.7656 4.2031zm-6.8594 21.094c2.2266 0 3.9258-0.8125 5.0938-2.4375 1.1758-1.6328 1.7656-4.0039 1.7656-7.1094 0-3.1016-0.58984-5.4688-1.7656-7.0938-1.168-1.625-2.8672-2.4375-5.0938-2.4375-2.2188 0-3.918 0.8125-5.0938 2.4375-1.168 1.625-1.75 3.9922-1.75 7.0938 0 3.1055 0.58203 5.4766 1.75 7.1094 1.1758 1.625 2.875 2.4375 5.0938 2.4375z"/>
  </symbol>
  <symbol id="c" overflow="visible">
   <path d="m22.344-6.7188c2.2266 0 3.9258-0.8125 5.0938-2.4375 1.1758-1.6328 1.7656-4.0039 1.7656-7.1094 0-3.1016-0.58984-5.4688-1.7656-7.0938-1.168-1.625-2.8672-2.4375-5.0938-2.4375-2.2305 0-3.9453 0.82031-5.1406 2.4531-1.1875 1.6367-1.7812 3.9961-1.7812 7.0781 0 3.0859 0.59375 5.4492 1.7812 7.0938 1.1953 1.6367 2.9102 2.4531 5.1406 2.4531zm-6.9219-21.094c1.4375-1.8945 3.0234-3.2969 4.7656-4.2031 1.75-0.90625 3.7539-1.3594 6.0156-1.3594 4.0195 0 7.3164 1.6016 9.8906 4.7969 2.582 3.1875 3.875 7.293 3.875 12.312 0 5.0234-1.293 9.1328-3.875 12.328-2.5742 3.1875-5.8711 4.7812-9.8906 4.7812-2.2617 0-4.2656-0.44922-6.0156-1.3438-1.7422-0.90625-3.3281-2.3125-4.7656-4.2188v4.7188h-10.422v-45.266h10.422z"/>
  </symbol>
  <symbol id="b" overflow="visible">
   <path d="m5.4688-43.438h14.25l9.8906 23.25 9.9531-23.25h14.219v43.438h-10.578v-31.766l-10.016 23.422h-7.0938l-10-23.422v31.766h-10.625z"/>
  </symbol>
  <symbol id="a" overflow="visible">
   <path d="m37.766-19.844v19.844h-10.484v-15.125c0-2.8516-0.0625-4.8125-0.1875-5.875-0.125-1.0703-0.34375-1.8594-0.65625-2.3594-0.40625-0.67578-0.96094-1.2031-1.6562-1.5781-0.69922-0.38281-1.4922-0.57812-2.375-0.57812-2.1797 0-3.8867 0.83984-5.125 2.5156-1.2422 1.6797-1.8594 4-1.8594 6.9688v16.031h-10.422v-45.266h10.422v17.453c1.5703-1.8945 3.2383-3.2969 5-4.2031 1.7578-0.90625 3.707-1.3594 5.8438-1.3594 3.7578 0 6.6133 1.1562 8.5625 3.4688 1.957 2.3125 2.9375 5.668 2.9375 10.062z"/>
  </symbol>
 </defs>
 <g>
  <path d="m622.58 140.96c4.7188-13.238 10.055-28.262-7.7578-44.324-6.957-6.293-13.953-9.3516-21.375-9.3516-9.2578 0-17.098 4.8594-24.652 9.5664-8.1992 5.0859-16.656 10.355-27.727 10.355-15.918 0-23.879-0.13281-31.836-0.26172-8.043-0.13281-16.074-0.26172-32.133-0.26172-15.512 0-23.055-0.78516-31.027-1.6211-8.0898-0.84766-16.453-1.7148-32.91-1.7148-14.703 0-21.875-2.0508-29.465-4.2305-8.4492-2.4297-17.168-4.9336-34.41-4.9336-16.348 0-24.652 0.69141-32.695 1.3477-8.0195 0.66797-15.609 1.2852-31.219 1.2852-15.098 0-22.438-1.4648-30.203-3.0039-8.2812-1.6445-16.836-3.3477-33.695-3.3477-15.859 0-23.781-0.21484-31.707-0.42969-8.0508-0.22266-16.094-0.4375-32.18-0.4375-10.105 0-18.074-1.9883-25.797-3.9062-6.5977-1.6367-12.832-3.1836-19.457-3.1836-10.566 0-19.992 4.0625-29.645 12.809-17.969 16.238-7.3867 32.289 0.33203 44 5.2773 8.0078 10.746 16.301 10.746 25.961 0 12.703-2.418 18.66-5.207 25.547-3.0508 7.5312-6.5156 16.062-6.5156 32.266 0 15.324 1.5508 23.102 3.0508 30.633 1.3828 6.9805 2.7031 13.57 2.7031 27.129 0 12.688-2.3945 18.637-5.1719 25.523-3.0273 7.5195-6.457 16.039-6.457 32.195 0 16.027 3.1094 24.484 5.8633 31.945 2.5508 6.9336 4.7539 12.926 4.7539 25.762 0 9.5664-3.7422 17.359-7.3516 24.902-5.875 12.238-13.191 27.488 4.5859 43.523 9.6758 8.7227 18.969 12.797 29.262 12.797 6.4336 0 12.449-1.5352 18.824-3.168 7.5664-1.9297 15.395-3.9336 25.559-3.9336 17.945 0 27.379-4.3125 35.707-8.1367 7.6367-3.4922 14.227-6.5039 28.273-6.5039 14.453 0 21.184 2.3711 28.988 5.1367 8.1719 2.8711 17.418 6.1484 34.945 6.1484 15.668 0 23.281 0.51172 31.336 1.0469 7.9961 0.53516 16.266 1.0977 32.539 1.0977 17.266 0 26.023-2.5625 34.48-5.0508 7.5898-2.2266 14.738-4.3125 29.441-4.3125 14.895 0 22.125 1.7891 29.812 3.6953 8.3633 2.0742 17.027 4.2188 34.078 4.2188 17.586 0 26.879-3.4805 35.066-6.5547 7.7578-2.8945 14.465-5.4102 28.82-5.4102 10.973 0 18.23 3.6562 25.246 7.1953 5.9102 2.9922 12.035 6.0781 19.312 6.0781 7.7461 0 15.133-3.4062 23.211-10.711 19.098-17.266 12.941-29.645 6.9805-41.605-2.8477-5.7188-6.0781-12.211-7.9102-21.113-3.8594-18.754-3.5977-24.746-3.0625-36.699 0.25-5.3242 0.52344-11.664 0.52344-20.492 0-12.273 2.9805-18.074 6.4336-24.793 3.957-7.6719 8.4258-16.359 8.4258-32.969 0-14.906-0.82031-22.496-1.6328-29.824-0.77344-7.1719-1.5117-13.941-1.5117-27.895l0.10547-57.703c0-9.3516 2.6953-16.941 5.3047-24.281zm-495.1-37.926c7.9375 1.9805 17.812 4.4336 30.109 4.4336 15.859 0 23.781 0.21484 31.707 0.42969 8.043 0.22656 16.098 0.44141 32.184 0.44141 15.098 0 22.438 1.4648 30.203 3.0039 8.2812 1.6445 16.836 3.3477 33.695 3.3477 16.348 0 24.652-0.69141 32.695-1.3477 8.0195-0.66797 15.609-1.2852 31.219-1.2852 14.715 0 21.887 2.0508 29.477 4.2305 8.4492 2.418 17.168 4.9219 34.398 4.9219 15.523 0 23.066 0.78516 31.039 1.6211 8.0898 0.84766 16.453 1.7148 32.898 1.7148 15.918 0 23.879 0.13281 31.836 0.26172 8.043 0.13281 16.074 0.26172 32.133 0.26172 16.156 0 27.809-7.2305 37.164-13.047 5.9336-3.6836 11.059-6.875 15.215-6.875 0.25 0 0.65625 0 1.1914 0.082031-7.625 6.707-12.164 11.082-16.406 15.18-5.1133 4.957-9.9492 9.6406-20.398 18.672-10.809 9.3398-16.027 14.238-21.23 19.125-5.0742 4.7539-10.152 9.5312-20.66 18.621-10.461 9.043-15.941 13.273-21.422 17.504-5.6836 4.3828-11.355 8.7695-22.184 18.121-10.879 9.4023-16.098 14.535-21.137 19.492-5.0508 4.9805-9.8281 9.6875-20.23 18.684-10.043 8.6758-15.68 12.012-21.648 15.535-6.3867 3.7773-13 7.6836-24.246 17.395-10.867 9.4023-16.133 14.488-21.195 19.434-4.0273 3.9219-8.0078 7.7578-14.582 13.594-6.9453-5.9805-11.344-9.7227-15.621-13.379-5.3242-4.5391-10.676-9.1016-21.281-18.242-10.426-9.0078-15.18-13.738-20.23-18.742-5.0391-5.0039-10.246-10.176-21.16-19.602-11.176-9.6641-17.621-13.668-23.867-17.562-5.9219-3.6836-11.512-7.1602-21.625-15.895-10.031-8.6758-14.156-13.773-18.516-19.172-4.6602-5.7773-9.4844-11.75-20.742-21.469-11.047-9.5547-17.254-13.727-23.258-17.766-5.8164-3.9062-11.309-7.6016-21.555-16.441-10.402-8.9844-15.133-13.715-20.148-18.73-4.5195-4.457-9.3789-9.2578-18.102-16.918 3.6211-1.7617 6.625-2.2891 9.1523-2.2891 4.418 0 9.3867 1.2266 15.129 2.6562zm478.27 31.934c-2.8242 7.9453-6.3398 17.848-6.3398 30.227l-0.10547 57.703c0 14.906 0.82031 22.496 1.6328 29.824 0.77344 7.1719 1.5117 13.941 1.5117 27.895 0 12.273-2.9805 18.074-6.4336 24.793-3.957 7.6719-8.4258 16.359-8.4258 32.969 0 8.4727-0.27344 14.57-0.5 19.684-0.57031 12.582-0.90625 20.172 3.4062 41.105 2.3008 11.176 6.2422 19.113 9.4141 25.473 5.3867 10.82 6.0781 12.199-2.9688 20.387-6.7422 6.1133-10.129 6.1133-11.223 6.1133-3.0391 0-6.6719-1.8359-11.273-4.1602-7.625-3.8359-18.074-9.1133-33.289-9.1133-17.598 0-26.891 3.4805-35.078 6.5547-7.7578 2.8945-14.465 5.4102-28.809 5.4102-14.883 0-22.113-1.7891-29.801-3.6953-8.3633-2.0742-17.027-4.2188-34.09-4.2188-17.254 0-26.012 2.5625-34.469 5.0391-7.5898 2.2383-14.75 4.3242-29.453 4.3242-15.668 0-23.281-0.51172-31.336-1.0469-7.9961-0.53516-16.266-1.0977-32.527-1.0977-14.453 0-21.195-2.3711-29-5.1367-8.1719-2.8711-17.418-6.1484-34.934-6.1484-17.945 0-27.379 4.3125-35.707 8.1367-7.6367 3.4922-14.227 6.5039-28.273 6.5039-12.414 0-22.148 2.4883-29.977 4.4922-5.4805 1.3945-10.211 2.6094-14.395 2.6094-4.0625 0-9.293-0.97656-17.289-8.1992-7.5664-6.8281-6.4453-10.043-0.45312-22.543 4.0625-8.4609 9.1133-19.004 9.1133-32.621 0-16.012-3.1094-24.473-5.8516-31.934-2.5508-6.9453-4.7539-12.941-4.7539-25.773 0-12.688 2.3945-18.637 5.1719-25.523 3.0273-7.5195 6.457-16.039 6.457-32.195 0-15.324-1.5508-23.09-3.0508-30.621-1.3828-6.9805-2.7031-13.582-2.7031-27.141 0-12.715 2.418-18.66 5.207-25.547 3.0508-7.5312 6.5156-16.074 6.5156-32.266 0-15.023-7.5898-26.547-13.691-35.805-4.6328-6.9453-6.8594-10.875-7.1328-13.832 8.6641 7.5781 13.227 12.082 17.801 16.656 5.0156 5.0156 10.211 10.188 21.102 19.602 11.047 9.5547 17.254 13.727 23.258 17.766 5.8164 3.9062 11.309 7.6016 21.555 16.441 10.043 8.6875 14.156 13.773 18.516 19.184 4.6719 5.7656 9.4844 11.734 20.73 21.457 11.176 9.6641 17.621 13.668 23.867 17.551 5.9219 3.6836 11.496 7.1602 21.625 15.895 10.438 9.0195 15.215 13.762 20.266 18.766 5.0273 4.9922 10.246 10.164 21.125 19.574 10.641 9.1875 16.012 13.773 21.363 18.336 5.375 4.5742 10.723 9.1406 21.422 18.371 0.46484 0.39453 1 0.60938 1.5 0.89453 0.33203 0.17969 0.62109 0.41797 0.96484 0.55859 1.0859 0.44141 2.2148 0.72656 3.3711 0.72656 1.1445 0 2.2773-0.27344 3.3711-0.72656 0.34375-0.14453 0.64453-0.38281 0.97656-0.57031 0.5-0.28516 1.0352-0.48828 1.4883-0.88281 10.832-9.3516 16.074-14.453 21.148-19.387 5.1133-4.9805 9.9492-9.6875 20.422-18.719 10.043-8.6875 15.68-12.012 21.648-15.551 6.3984-3.7773 13-7.6836 24.246-17.395 10.855-9.3789 16.062-14.5 21.102-19.469 5.0625-4.9805 9.8398-9.6875 20.277-18.707 10.461-9.043 15.941-13.273 21.422-17.504 5.6836-4.3828 11.355-8.7695 22.184-18.121 10.793-9.3281 16.012-14.215 21.207-19.113 5.0859-4.7656 10.164-9.5312 20.684-18.637 10.832-9.3633 16.086-14.441 21.148-19.363 4.6211-4.4688 9.2109-8.875 17.684-16.289 2.0508 4.793 0.41797 9.6289-2.5703 18.031z"/>
  <use x="70" y="738.722656" xlink:href="#f"/>
  <use x="223.707031" y="738.722656" xlink:href="#e"/>
  <use x="292.589844" y="738.722656" xlink:href="#d"/>
  <use x="355.976562" y="738.722656" xlink:href="#c"/>
  <use x="458.195313" y="738.722656" xlink:href="#b"/>
  <use x="558.40625" y="738.722656" xlink:href="#a"/>
 </g>
</svg>
